<?xml version="1.0" encoding="utf-8"?>
<!-- Generator: Adobe Illustrator 20.0.0, SVG Export Plug-In . SVG Version: 6.00 Build 0)  -->
<svg version="1.1" id="Layer_1" xmlns="http://www.w3.org/2000/svg" xmlns:xlink="http://www.w3.org/1999/xlink" x="0px" y="0px"
	 viewBox="0 0 221.7 81.1" style="enable-background:new 0 0 221.7 81.1;" xml:space="preserve">
<style type="text/css">
	.st0{fill:url(#SVGID_1_);}
	.st1{fill:url(#SVGID_2_);}
	.st2{fill:url(#SVGID_3_);}
	.st3{fill:url(#SVGID_4_);}
	.st4{fill:url(#SVGID_5_);}
	.st5{fill:url(#SVGID_6_);}
	.st6{fill:url(#SVGID_7_);}
	.st7{fill:url(#SVGID_8_);}
	.st8{fill:url(#SVGID_9_);}
	.st9{fill:url(#SVGID_10_);}
	.st10{fill:url(#SVGID_11_);}
	.st11{fill:url(#SVGID_12_);}
	.st12{fill:url(#SVGID_13_);}
	.st13{fill:url(#SVGID_14_);}
	.st14{fill:url(#SVGID_15_);}
	.st15{fill:url(#SVGID_16_);}
	.st16{fill:url(#SVGID_17_);}
	.st17{fill:url(#SVGID_18_);}
	.st18{fill:url(#SVGID_19_);}
	.st19{fill:url(#SVGID_20_);}
	.st20{fill:url(#SVGID_21_);}
	.st21{fill:url(#SVGID_22_);}
	.st22{fill:url(#SVGID_23_);}
	.st23{fill:url(#SVGID_24_);}
	.st24{fill:url(#SVGID_25_);}
	.st25{fill:#434345;}
</style>
<g>
	<g>
		<path d="M129.4,53.4c0.1,0.8,0.2,1.5,0.2,2.1c-0.2,0.1-0.4,0.2-0.7,0.1c-0.1-0.3-0.1-0.5-0.2-0.7c-0.1-0.2-0.2-0.4-0.3-0.6
			c-0.1-0.2-0.3-0.4-0.5-0.5c-0.2-0.1-0.5-0.2-0.7-0.2c-0.4,0-0.6,0.1-0.8,0.3c-0.2,0.2-0.3,0.5-0.3,0.9c0,0.4,0.2,0.7,0.5,1
			c0.3,0.3,0.7,0.6,1,0.8c0.8,0.4,1.5,0.9,1.9,1.3c0.5,0.5,0.7,1.1,0.7,1.7c0,0.7-0.3,1.4-1,1.9c-0.6,0.5-1.3,0.7-2.1,0.7
			c-0.7,0-1.3,0-1.8-0.1c-0.5-0.1-0.8-0.1-1-0.1c-0.2-0.6-0.3-1.3-0.3-2.3c0.3-0.1,0.5-0.1,0.7,0c0.1,0.6,0.4,1.1,0.8,1.5
			c0.4,0.4,0.9,0.6,1.4,0.6c0.4,0,0.8-0.1,1-0.3c0.3-0.2,0.4-0.5,0.4-0.8c0-0.6-0.4-1.2-1.2-1.8c-0.1-0.1-0.3-0.2-0.7-0.4
			c-0.4-0.2-0.7-0.4-1-0.6c-0.3-0.2-0.5-0.4-0.7-0.7c-0.3-0.4-0.5-0.9-0.5-1.6c0-0.7,0.3-1.2,0.9-1.7c0.6-0.4,1.2-0.7,2-0.7
			c0.5,0,1,0.1,1.5,0.2C129.1,53.3,129.4,53.4,129.4,53.4z"/>
		<path d="M136,60.4c0,0.5,0.1,0.9,0.2,1c0.2,0.1,0.5,0.2,1.1,0.2c0,0,0.1,0.1,0.1,0.2c0,0.1,0,0.2-0.1,0.2c-0.9,0-1.7,0-2.3,0
			c-0.6,0-1.4,0-2.3,0c0,0-0.1-0.1-0.1-0.2c0-0.1,0-0.2,0.1-0.2c0.6,0,0.9-0.1,1.1-0.2c0.2-0.1,0.2-0.5,0.2-1v-5.3
			c0-0.4,0-0.8-0.1-1c-0.1-0.2-0.3-0.3-0.5-0.3h-0.7c-0.5,0-0.8,0.1-1.1,0.3c-0.3,0.2-0.5,0.6-0.6,1.1c-0.2,0-0.4,0-0.5-0.1
			c0.2-0.8,0.3-1.5,0.3-2c0,0,0,0,0.1,0c0.9,0.1,2,0.1,3.2,0.1h1.9c1.2,0,2.2,0,3.1-0.1c0,0,0,0,0,0c0,0.6,0.1,1.3,0.2,2
			c-0.1,0-0.3,0.1-0.5,0.1c-0.1-0.5-0.3-0.9-0.6-1.1c-0.3-0.2-0.7-0.3-1.2-0.3h-0.3c-0.2,0-0.4,0.1-0.5,0.3
			c-0.1,0.2-0.1,0.6-0.1,1.1V60.4z"/>
		<path d="M143.1,54.9v3.5c0,0.4,0,0.7,0,0.9c0,0.2,0.1,0.5,0.2,0.8c0.1,0.3,0.3,0.6,0.5,0.8c0.5,0.5,1,0.7,1.6,0.7
			c0.4,0,0.8-0.1,1.2-0.2c0.3-0.1,0.6-0.3,0.7-0.5c0.2-0.2,0.3-0.5,0.4-0.8c0.1-0.3,0.2-0.6,0.2-0.9c0-0.3,0-0.6,0-1v-3.4
			c0-0.3,0-0.5,0-0.7c0-0.2-0.1-0.3-0.2-0.3c-0.1-0.1-0.2-0.1-0.4-0.2c-0.1,0-0.3,0-0.6-0.1c0,0-0.1-0.1-0.1-0.2
			c0-0.1,0-0.2,0.1-0.2c0.9,0,1.5,0,1.7,0c0.1,0,0.6,0,1.5,0c0,0,0.1,0.1,0.1,0.2c0,0.1,0,0.2-0.1,0.2c-0.3,0-0.6,0.1-0.7,0.1
			c-0.1,0-0.2,0.1-0.3,0.3c-0.1,0.2-0.1,0.4-0.1,0.8V58c0,1.3-0.3,2.3-0.9,3.1c-0.6,0.7-1.5,1.1-2.8,1.1c-1.3,0-2.2-0.2-2.8-0.6
			c-0.8-0.5-1.2-1.4-1.2-2.8v-3.9c0-0.5-0.1-0.9-0.2-1c-0.1-0.1-0.4-0.2-0.9-0.2c0,0-0.1-0.1-0.1-0.2c0-0.1,0-0.2,0.1-0.2
			c0.9,0,1.6,0,2,0c0.6,0,1.3,0,2.2,0c0,0,0.1,0.1,0.1,0.2c0,0.1,0,0.2-0.1,0.2c-0.5,0-0.9,0.1-1,0.2
			C143.1,54,143.1,54.3,143.1,54.9z"/>
		<path d="M152.9,62.1l-2.1,0c-0.1,0-0.1-0.1-0.1-0.2c0-0.1,0-0.2,0.1-0.2c0.2,0,0.4,0,0.5,0c0.1,0,0.2-0.1,0.3-0.2
			c0.1-0.1,0.2-0.2,0.2-0.4c0-0.2,0.1-0.4,0.1-0.7v-5.5c0-0.3,0-0.5-0.1-0.7c0-0.2-0.1-0.3-0.2-0.4c-0.1-0.1-0.2-0.1-0.3-0.2
			c-0.1,0-0.3,0-0.5,0c-0.1,0-0.1-0.1-0.1-0.2c0-0.1,0-0.2,0.1-0.2c1,0,1.7,0,2.1,0c0.2,0,0.5,0,0.9,0c0.4,0,0.7,0,1,0
			c1.6,0,2.8,0.4,3.6,1.3c0.8,0.9,1.3,2,1.3,3.3c0,0.7-0.1,1.3-0.3,1.9c-0.2,0.5-0.5,1-0.8,1.3c-0.9,0.8-2,1.2-3.4,1.2
			c-0.2,0-0.6,0-1.1,0C153.4,62.1,153,62.1,152.9,62.1z M153.8,60.4c0,0.4,0.1,0.7,0.3,0.9c0.2,0.1,0.5,0.2,1,0.2
			c0.3,0,0.6-0.1,0.8-0.2c0.3-0.1,0.5-0.3,0.8-0.6c0.3-0.3,0.5-0.6,0.6-1.1c0.2-0.5,0.2-1,0.2-1.6c0-0.5,0-0.9-0.1-1.3
			c0-0.4-0.1-0.8-0.2-1.2c-0.1-0.4-0.3-0.8-0.5-1c-0.2-0.3-0.5-0.5-0.9-0.7c-0.4-0.2-0.8-0.3-1.4-0.3c-0.6,0-0.9,0.3-0.9,1V60.4z"/>
		<path d="M162,54.9c0-0.3,0-0.5-0.1-0.7c0-0.2-0.1-0.3-0.2-0.4c-0.1-0.1-0.2-0.1-0.3-0.2c-0.1,0-0.3,0-0.5,0
			c-0.1,0-0.1-0.1-0.1-0.2c0-0.1,0-0.2,0.1-0.2c0.7,0,1.4,0,2.1,0c0.7,0,1.4,0,2.1,0c0.1,0,0.1,0.1,0.1,0.2c0,0.1,0,0.2-0.1,0.2
			c-0.2,0-0.4,0-0.5,0c-0.1,0-0.2,0.1-0.3,0.2c-0.1,0.1-0.2,0.2-0.2,0.4c0,0.2-0.1,0.4-0.1,0.7v5.5c0,0.3,0,0.5,0.1,0.7
			c0,0.2,0.1,0.3,0.2,0.4c0.1,0.1,0.2,0.1,0.3,0.2c0.1,0,0.3,0,0.5,0c0.1,0,0.1,0.1,0.1,0.2c0,0.1,0,0.2-0.1,0.2c-0.7,0-1.4,0-2.1,0
			c-0.7,0-1.4,0-2.1,0c-0.1,0-0.1-0.1-0.1-0.2c0-0.1,0-0.2,0.1-0.2c0.2,0,0.4,0,0.5,0c0.1,0,0.2-0.1,0.3-0.2
			c0.1-0.1,0.2-0.2,0.2-0.4c0-0.2,0.1-0.4,0.1-0.7V54.9z"/>
		<path d="M174.7,57.5c0,1.3-0.4,2.4-1.1,3.3c-0.8,0.9-1.9,1.4-3.2,1.4c-1.2,0-2.2-0.4-3.1-1.2s-1.3-1.9-1.3-3.2
			c0-1.3,0.4-2.4,1.1-3.3c0.4-0.5,0.9-0.9,1.4-1.1c0.6-0.3,1.2-0.4,1.8-0.4c1.2,0,2.3,0.4,3.1,1.3C174.2,55.1,174.7,56.2,174.7,57.5
			z M170.1,53.6c-0.7,0-1.2,0.3-1.6,1c-0.4,0.7-0.6,1.7-0.6,3c0,1.3,0.3,2.3,0.8,3c0.5,0.7,1.2,1.1,1.9,1.1c0.7,0,1.2-0.3,1.6-1
			c0.4-0.7,0.6-1.6,0.6-2.8c0-1.4-0.2-2.4-0.7-3.1C171.5,53.9,170.9,53.6,170.1,53.6z"/>
	</g>
	<g>
		<g>
			<linearGradient id="SVGID_1_" gradientUnits="userSpaceOnUse" x1="165.6496" y1="48.9685" x2="166.0867" y2="48.9685">
				<stop  offset="0" style="stop-color:#910811"/>
				<stop  offset="0.3202" style="stop-color:#920C12"/>
				<stop  offset="0.5276" style="stop-color:#951817"/>
				<stop  offset="0.703" style="stop-color:#9B271F"/>
				<stop  offset="0.8595" style="stop-color:#A33A2D"/>
				<stop  offset="1" style="stop-color:#AE4F3E"/>
			</linearGradient>
			<path class="st0" d="M166.1,49c-0.1,0-0.1,0-0.2,0l-0.3,0L166.1,49z"/>
			<linearGradient id="SVGID_2_" gradientUnits="userSpaceOnUse" x1="192.3876" y1="47.3377" x2="192.5422" y2="47.3377">
				<stop  offset="0" style="stop-color:#910811"/>
				<stop  offset="0.3202" style="stop-color:#920C12"/>
				<stop  offset="0.5276" style="stop-color:#951817"/>
				<stop  offset="0.703" style="stop-color:#9B271F"/>
				<stop  offset="0.8595" style="stop-color:#A33A2D"/>
				<stop  offset="1" style="stop-color:#AE4F3E"/>
			</linearGradient>
			<path class="st1" d="M192.5,47.4L192.5,47.4C192.5,47.3,192.4,47.3,192.5,47.4C192.4,47.3,192.4,47.3,192.5,47.4z"/>
			<linearGradient id="SVGID_3_" gradientUnits="userSpaceOnUse" x1="185.5103" y1="47.7386" x2="185.8456" y2="47.7386">
				<stop  offset="0" style="stop-color:#910811"/>
				<stop  offset="0.3202" style="stop-color:#920C12"/>
				<stop  offset="0.5276" style="stop-color:#951817"/>
				<stop  offset="0.703" style="stop-color:#9B271F"/>
				<stop  offset="0.8595" style="stop-color:#A33A2D"/>
				<stop  offset="1" style="stop-color:#AE4F3E"/>
			</linearGradient>
			<path class="st2" d="M185.8,47.8c-0.1,0-0.2,0-0.3-0.1C185.5,47.7,185.7,47.7,185.8,47.8z"/>
			<linearGradient id="SVGID_4_" gradientUnits="userSpaceOnUse" x1="168.8154" y1="49.0534" x2="169.717" y2="49.0534">
				<stop  offset="0" style="stop-color:#910811"/>
				<stop  offset="0.3202" style="stop-color:#920C12"/>
				<stop  offset="0.5276" style="stop-color:#951817"/>
				<stop  offset="0.703" style="stop-color:#9B271F"/>
				<stop  offset="0.8595" style="stop-color:#A33A2D"/>
				<stop  offset="1" style="stop-color:#AE4F3E"/>
			</linearGradient>
			<path class="st3" d="M169.7,49.1c-0.3,0-0.6-0.1-0.9-0.1C168.9,49.1,169.3,49.1,169.7,49.1z"/>
			<linearGradient id="SVGID_5_" gradientUnits="userSpaceOnUse" x1="185.8456" y1="47.8027" x2="186.7399" y2="47.8027">
				<stop  offset="0" style="stop-color:#910811"/>
				<stop  offset="0.3202" style="stop-color:#920C12"/>
				<stop  offset="0.5276" style="stop-color:#951817"/>
				<stop  offset="0.703" style="stop-color:#9B271F"/>
				<stop  offset="0.8595" style="stop-color:#A33A2D"/>
				<stop  offset="1" style="stop-color:#AE4F3E"/>
			</linearGradient>
			<path class="st4" d="M186.7,47.8c-0.2,0-0.6,0-0.9-0.1C186.1,47.8,186.4,47.8,186.7,47.8z"/>
			<linearGradient id="SVGID_6_" gradientUnits="userSpaceOnUse" x1="204.3931" y1="47.3126" x2="205.0323" y2="47.3126">
				<stop  offset="0" style="stop-color:#910811"/>
				<stop  offset="0.3202" style="stop-color:#920C12"/>
				<stop  offset="0.5276" style="stop-color:#951817"/>
				<stop  offset="0.703" style="stop-color:#9B271F"/>
				<stop  offset="0.8595" style="stop-color:#A33A2D"/>
				<stop  offset="1" style="stop-color:#AE4F3E"/>
			</linearGradient>
			<path class="st5" d="M205,47.3c-0.2,0-0.4,0-0.6-0.1c0,0,0,0,0,0L205,47.3z"/>
			<linearGradient id="SVGID_7_" gradientUnits="userSpaceOnUse" x1="23.8044" y1="51.498" x2="24.4361" y2="51.498">
				<stop  offset="0" style="stop-color:#910811"/>
				<stop  offset="0.3202" style="stop-color:#920C12"/>
				<stop  offset="0.5276" style="stop-color:#951817"/>
				<stop  offset="0.703" style="stop-color:#9B271F"/>
				<stop  offset="0.8595" style="stop-color:#A33A2D"/>
				<stop  offset="1" style="stop-color:#AE4F3E"/>
			</linearGradient>
			<path class="st6" d="M23.8,51.6c0.6,0,0.7-0.1,0.6-0.1C24.3,51.5,24.1,51.5,23.8,51.6z"/>
			<linearGradient id="SVGID_8_" gradientUnits="userSpaceOnUse" x1="20.3142" y1="51.5808" x2="20.6389" y2="51.5808">
				<stop  offset="0" style="stop-color:#910811"/>
				<stop  offset="0.3202" style="stop-color:#920C12"/>
				<stop  offset="0.5276" style="stop-color:#951817"/>
				<stop  offset="0.703" style="stop-color:#9B271F"/>
				<stop  offset="0.8595" style="stop-color:#A33A2D"/>
				<stop  offset="1" style="stop-color:#AE4F3E"/>
			</linearGradient>
			<path class="st7" d="M20.6,51.6c-0.1,0-0.2,0-0.3,0C20.5,51.6,20.7,51.6,20.6,51.6z"/>
			<linearGradient id="SVGID_9_" gradientUnits="userSpaceOnUse" x1="29.8396" y1="50.6908" x2="29.9753" y2="50.6908">
				<stop  offset="0" style="stop-color:#910811"/>
				<stop  offset="0.3202" style="stop-color:#920C12"/>
				<stop  offset="0.5276" style="stop-color:#951817"/>
				<stop  offset="0.703" style="stop-color:#9B271F"/>
				<stop  offset="0.8595" style="stop-color:#A33A2D"/>
				<stop  offset="1" style="stop-color:#AE4F3E"/>
			</linearGradient>
			<path class="st8" d="M30,50.7c0,0-0.1,0-0.1-0.1C29.8,50.7,29.8,50.7,30,50.7z"/>
			<linearGradient id="SVGID_10_" gradientUnits="userSpaceOnUse" x1="53.4763" y1="48.0244" x2="53.8265" y2="48.0244">
				<stop  offset="0" style="stop-color:#910811"/>
				<stop  offset="0.3202" style="stop-color:#920C12"/>
				<stop  offset="0.5276" style="stop-color:#951817"/>
				<stop  offset="0.703" style="stop-color:#9B271F"/>
				<stop  offset="0.8595" style="stop-color:#A33A2D"/>
				<stop  offset="1" style="stop-color:#AE4F3E"/>
			</linearGradient>
			<path class="st9" d="M53.8,48.1L53.5,48C53.5,48,53.7,48,53.8,48.1z"/>
			<linearGradient id="SVGID_11_" gradientUnits="userSpaceOnUse" x1="72.9447" y1="47.7888" x2="73.1143" y2="47.7888">
				<stop  offset="0" style="stop-color:#910811"/>
				<stop  offset="0.3202" style="stop-color:#920C12"/>
				<stop  offset="0.5276" style="stop-color:#951817"/>
				<stop  offset="0.703" style="stop-color:#9B271F"/>
				<stop  offset="0.8595" style="stop-color:#A33A2D"/>
				<stop  offset="1" style="stop-color:#AE4F3E"/>
			</linearGradient>
			<path class="st10" d="M72.9,47.8l0.2,0L72.9,47.8z"/>
			<linearGradient id="SVGID_12_" gradientUnits="userSpaceOnUse" x1="73.1143" y1="47.7912" x2="73.5123" y2="47.7912">
				<stop  offset="0" style="stop-color:#910811"/>
				<stop  offset="0.3202" style="stop-color:#920C12"/>
				<stop  offset="0.5276" style="stop-color:#951817"/>
				<stop  offset="0.703" style="stop-color:#9B271F"/>
				<stop  offset="0.8595" style="stop-color:#A33A2D"/>
				<stop  offset="1" style="stop-color:#AE4F3E"/>
			</linearGradient>
			<path class="st11" d="M73.5,47.8l-0.4,0C73.3,47.8,73.4,47.8,73.5,47.8z"/>
			<linearGradient id="SVGID_13_" gradientUnits="userSpaceOnUse" x1="205.0323" y1="47.4926" x2="207.2855" y2="47.4926">
				<stop  offset="0" style="stop-color:#910811"/>
				<stop  offset="0.3202" style="stop-color:#920C12"/>
				<stop  offset="0.5276" style="stop-color:#951817"/>
				<stop  offset="0.703" style="stop-color:#9B271F"/>
				<stop  offset="0.8595" style="stop-color:#A33A2D"/>
				<stop  offset="1" style="stop-color:#AE4F3E"/>
			</linearGradient>
			<path class="st12" d="M205.6,47.6c0.5-0.1,1.6-0.1,1.6-0.3l-2.3-0.1C205.8,47.4,206.2,47.6,205.6,47.6z"/>
			<linearGradient id="SVGID_14_" gradientUnits="userSpaceOnUse" x1="52.6826" y1="47.142" x2="54.0012" y2="47.142">
				<stop  offset="0" style="stop-color:#910811"/>
				<stop  offset="0.3202" style="stop-color:#920C12"/>
				<stop  offset="0.5276" style="stop-color:#951817"/>
				<stop  offset="0.703" style="stop-color:#9B271F"/>
				<stop  offset="0.8595" style="stop-color:#A33A2D"/>
				<stop  offset="1" style="stop-color:#AE4F3E"/>
			</linearGradient>
			<path class="st13" d="M54,47.1c-0.7,0-1.1,0-1.3,0.1C53.1,47.2,53.6,47.1,54,47.1L54,47.1z"/>
			<linearGradient id="SVGID_15_" gradientUnits="userSpaceOnUse" x1="37.1763" y1="48.2122" x2="37.2794" y2="48.2122">
				<stop  offset="0" style="stop-color:#910811"/>
				<stop  offset="0.3202" style="stop-color:#920C12"/>
				<stop  offset="0.5276" style="stop-color:#951817"/>
				<stop  offset="0.703" style="stop-color:#9B271F"/>
				<stop  offset="0.8595" style="stop-color:#A33A2D"/>
				<stop  offset="1" style="stop-color:#AE4F3E"/>
			</linearGradient>
			<polygon class="st14" points="37.2,48.2 37.3,48.2 37.2,48.2 			"/>
			<linearGradient id="SVGID_16_" gradientUnits="userSpaceOnUse" x1="55.24" y1="46.9617" x2="55.5006" y2="46.9617">
				<stop  offset="0" style="stop-color:#910811"/>
				<stop  offset="0.3202" style="stop-color:#920C12"/>
				<stop  offset="0.5276" style="stop-color:#951817"/>
				<stop  offset="0.703" style="stop-color:#9B271F"/>
				<stop  offset="0.8595" style="stop-color:#A33A2D"/>
				<stop  offset="1" style="stop-color:#AE4F3E"/>
			</linearGradient>
			<path class="st15" d="M55.3,47c0.1,0,0.2,0,0.2-0.1C55.2,46.9,55.2,47,55.3,47z"/>
			<linearGradient id="SVGID_17_" gradientUnits="userSpaceOnUse" x1="162.0138" y1="49.4839" x2="162.3341" y2="49.4839">
				<stop  offset="0" style="stop-color:#910811"/>
				<stop  offset="0.3202" style="stop-color:#920C12"/>
				<stop  offset="0.5276" style="stop-color:#951817"/>
				<stop  offset="0.703" style="stop-color:#9B271F"/>
				<stop  offset="0.8595" style="stop-color:#A33A2D"/>
				<stop  offset="1" style="stop-color:#AE4F3E"/>
			</linearGradient>
			<path class="st16" d="M162.3,49.5c-0.1,0-0.2,0-0.3,0C162.2,49.5,162.3,49.5,162.3,49.5z"/>
			<linearGradient id="SVGID_18_" gradientUnits="userSpaceOnUse" x1="36.6915" y1="48.3202" x2="38.3273" y2="48.3202">
				<stop  offset="0" style="stop-color:#910811"/>
				<stop  offset="0.3202" style="stop-color:#920C12"/>
				<stop  offset="0.5276" style="stop-color:#951817"/>
				<stop  offset="0.703" style="stop-color:#9B271F"/>
				<stop  offset="0.8595" style="stop-color:#A33A2D"/>
				<stop  offset="1" style="stop-color:#AE4F3E"/>
			</linearGradient>
			<path class="st17" d="M38.3,48.4l-1.1-0.2c-0.1,0-0.3,0.1-0.5,0.1C36.5,48.4,37.8,48.4,38.3,48.4z"/>
			<linearGradient id="SVGID_19_" gradientUnits="userSpaceOnUse" x1="54.0012" y1="47.1027" x2="55.5496" y2="47.1027">
				<stop  offset="0" style="stop-color:#910811"/>
				<stop  offset="0.3202" style="stop-color:#920C12"/>
				<stop  offset="0.5276" style="stop-color:#951817"/>
				<stop  offset="0.703" style="stop-color:#9B271F"/>
				<stop  offset="0.8595" style="stop-color:#A33A2D"/>
				<stop  offset="1" style="stop-color:#AE4F3E"/>
			</linearGradient>
			<path class="st18" d="M55.3,47c-0.3,0.1-0.7,0.1-1.3,0.1l0.6,0.1C56.1,47.2,55.4,47.1,55.3,47z"/>
			<linearGradient id="SVGID_20_" gradientUnits="userSpaceOnUse" x1="15.9445" y1="49.2834" x2="207.7222" y2="49.2834">
				<stop  offset="0" style="stop-color:#910811"/>
				<stop  offset="0.3202" style="stop-color:#920C12"/>
				<stop  offset="0.5276" style="stop-color:#951817"/>
				<stop  offset="0.703" style="stop-color:#9B271F"/>
				<stop  offset="0.8595" style="stop-color:#A33A2D"/>
				<stop  offset="1" style="stop-color:#AE4F3E"/>
			</linearGradient>
			<path class="st19" d="M22.5,51c0.7,0.1-1.7,0.3-0.3,0.3l1.4-0.2c-0.2,0.1,0.6,0.2,0.7,0.3c0.6-0.2-1.8-0.3-0.1-0.6
				c0.4-0.1,1.7-0.1,2.3-0.1c-1.4,0,0-0.2,0.6-0.3c0.9,0.1,2.3,0,2.7,0.2c0.1,0,0.8-0.1,1.3-0.1l0,0.1c1.1-0.1-0.4-0.1-0.1-0.1
				c0.8,0-15.7,0.1-14.5,0.1c-1.2,0,15.4,0.1,14.5,0.2c2.3,0.1-0.4,0.4-0.9,0.5c1.8-0.1-15.2-0.2-13.7-0.3c1.8,0.1-0.1,0.5-0.6,0.5
				c1.7-0.1,3.4-0.3,4.3-0.4c-1.2,0.3-1,0.4-2.1,0.6c1.3,0.2,1.6,0,2.2-0.1c-0.4,0-0.9,0-1.1,0c1.6,0,1.3-0.4,2.1-0.6
				c1.2,0.1,3.4,0.2,3.2,0.4l0-0.3c1.4-0.1,0.7,0.1,0.9,0.2c0.5-0.2-0.1-0.4,2.2-0.5c-0.4,0.4,2,0,2,0.4c1.1,0,1.6-0.2,2.7-0.2
				c1.2,0.2-1.7,0.5-2.4,0.5c-1.6,0,0.2-0.2-0.4-0.2l-1.5,0.1c0.8,0.1,2.4,0.2,2.3,0.3c1.5-0.1-1.2-0.2,0.4-0.3l1,0.1
				c1.7-0.1-0.3-0.3,1.8-0.3c-1.4,0.2,2.3,0,2.2,0.3c0.1-0.3,3.9-0.1,4.3-0.3L39,51.2l0.3,0.2c-1.2,0-2.3,0.1-3.6,0
				c1-0.1-0.3-0.3,0.8-0.4c2.2-0.2,0.6,0.2,0.9,0.2l1.8-0.2l-1.2-0.1c1.4-0.1,3.2-0.1,5.1-0.1c2.8,0.2-0.3,0.2,1.7,0.4
				c0.9-0.1,0.7-0.2,1.9-0.1c-0.7-0.1-1.2,0-1.7,0c-0.6-0.2,2.3-0.1,2.1-0.3c0.5,0.1,0.4,0.2,0,0.3c2.1-0.1,4.2-0.1,5,0.2L53,51
				c3.6,0.1-2.5,0.2,0.6,0.4c1.3,0,2.5,0,3.1-0.1l-1.1,0c0.8-0.1,0.8-0.3,2.1-0.3c1,0,0.4,0.2,1.6,0.1c2.9,0.2,0.9,0.4,0.4,0.7
				c2.1,0.1-1.1,0.5,0.4,0.4L59.7,52l2.2-0.4c-2.1-0.3-0.8,0.3-1.6,0l-1.2,0c0.4-0.2,3.2,0,3.5-0.2c0,0.1-0.3,0.3-1.6,0.3l0.8,0.3
				c0.4,0,0.7,0,0.9-0.1l0.1,0h0c0,1,0-8.4,0-4.4h0h0h0l0,0l0,0l0,0l0,0l-0.2,0c-0.1,0-0.2,0-0.3-0.1C61,47.2,63.7,47.1,61,47
				c-2.9-0.1-2.7,0.3-4.7,0.3c0.2,0.1,0.7,0.1,1.3,0.1c-0.6,0.1,0.5,0.2-0.6,0.3c-0.6-0.2-2.7-0.2-4.3-0.2c0.4-0.1-0.6-0.2-0.1-0.3
				c-0.8,0-1.5,0.1-1.9,0.2c3.2,0.2-3.1,0.2-0.6,0.4c-2.5,0-3-0.2-4.6-0.3c0.1-0.1,2.9-0.1,0.7-0.2c-2.6,0.2,0.5,0.3-1.5,0.6
				l1.6,0.1c0.2,0.3-2.8,0.1-3.2,0.1c-1-0.1,1.4-0.1,0.4-0.3c-1.5-0.1-2.2,0.1-3.2,0c0.9-0.2,0.3-0.1,1.4-0.3
				c-3.5,0,0.2-0.2-2.5-0.3c-0.8,0-0.3,0.2-1.7,0.2c0.8,0.2,0.7,0.3,2.9,0.3c-0.8,0.3-2.9-0.1-4.4,0.1c1.2,0,0.4,0.1,1.7,0
				c0.2,0.3,0.7,0.3-0.5,0.5c1.4-0.1,2-0.3,4.1-0.3c0.6,0.3-2.5,0.2-2.5,0.5c-1,0.2-3.5,0-4.6-0.1l-0.8,0.1l-0.4,0l-0.2,0l-0.1,0
				l-0.1,0l0,0h0c0,4.8,0,1.3,0,2.4h0l0,0h0c0.5,0,1.1-0.1,1.6-0.1c1-0.1,2-0.1,2.8-0.3c1.4,0.1,5-0.2,7.7-0.1
				c0.4,0.2,3.3,0.1,1.7,0.3c0.2,0,2.5-0.1,1.9-0.2c-0.2,0-0.5,0-1,0l0.4-0.2c1.3,0.1,2.8-0.2,4,0c0.4,0.2-2.4,0.1-1.5,0.3
				c1.2-0.3,6.1-0.4,7.7-0.3c1,0,1.2,0.3,1.6,0.3l1.8,0c0.2,0.1,0.2,0.2,0.6,0.3c0.9,0.1,1.5,0,2-0.1c2.3,0.1,1.1,0.3-0.1,0.5
				l-1.3-0.1c-0.9,0.1-2.3,0.1-1.5,0.3c0.7,0,0.6-0.1,0.9-0.2l0.8,0.1c0.8-0.1,2.9-0.1,2.7-0.3c1.6,0.1,3.3,0,4.7,0.1
				c-0.9-0.1,0.3-0.2,0-0.3l-1.7-0.1c1.3,0,3.2-0.2,4.5-0.1c-0.2,0.1-0.2,0.1,0.4,0.2c-0.9-0.1,2.3-0.2,0.4-0.4
				c-0.7,0.1-1.4,0.1-2.3,0.1c-0.6-0.2,0.8-0.2,1.7-0.4c1-0.1,3-0.1,4.4-0.2c0.9,0.1,1.1,0.3,2.6,0.2c-1.9-0.2,1.8-0.4,2.3-0.6
				c1.4,0.1,2.3-0.2,3.5,0c-0.6,0.1-2.8,0.1-3.4,0.2c-0.1,0.2,0.5,0.4-1.7,0.5c2.6,0.1,1.5-0.1,2.7-0.2l-0.9,0
				c0.4-0.1-0.4-0.2,0.4-0.2c3.1,0.1,3.6,0.2,5.7,0.4c-0.5-0.1,0.5-0.2,1-0.2c2,0.1,0,0.3,1.2,0.6c0.7-0.1,2.1-0.1,1.6-0.2
				c0.8,0,0.4,0.1,0.9,0.1c0.5-0.1,1.1-0.2,2.2-0.2c-0.1,0.1-0.3,0.2-1.3,0.1c1.2,0.1,1.6,0.3,1.1,0.4L93.5,51
				c-0.9,0.2,1.8,0.1,1.7,0.2c-0.8,0-1.5-0.1-2,0c0.5,0.2,2.2,0,3.2,0c1.5,0,1,0.2,1,0.3c2.6-0.3-3-0.3-0.6-0.6
				c0.9-0.2,3.2-0.2,4.9-0.2c-1.4-0.2,0.2-0.3,1.8-0.4c-2.2,0-0.6-0.3-3.1-0.1l-0.1-0.2c1.1,0,2.4,0.1,3.5,0.1c-0.2,0,0,0.1-0.3,0.1
				l3.3-0.1l-0.3,0.1c2,0,4.5,0.2,5.7,0.1c-1,0-1.8-0.2-0.8-0.2C112,50,113,50,114,50c0.5,0.2,4,0.2,1.8,0.4
				c2.8-0.1,1.8-0.1,4.5-0.3l-1.8,0.1c-0.2-0.2,1.3-0.4-0.5-0.5c2-0.1,0.7-0.4,3.5-0.4c1.1,0.1-0.3,0.3-1.9,0.4c0.8,0,1.5,0.1,2.3,0
				c0.6,0.1-1.5,0.2-1.4,0.3c1.4,0,0-0.1,1.3-0.1c2.3-0.2,1.5,0.3,3.7,0.2c-0.5,0-1.4,0-0.8-0.1c3,0,1.7-0.2,3.8-0.2
				c1.2,0.2,0.7,0.5,2.7,0.5l-1.1,0c0.8,0.1,1.6,0.2,2.4,0.2c4.1-0.2,7.5-0.6,11.7-0.8l-1.5,0.1c-0.5-0.1,1.3-0.1,1.2-0.2l0.9,0.1
				c0.3-0.2-2.1-0.2-1.6-0.3c0.1,0,0.4,0,0.6,0l-0.9-0.1c2,0.1,3.5-0.3,5,0c-3.8,0-0.6,0.5-4.3,0.6c2-0.1,0.4,0.2,0.6,0.3
				c1.1,0,0.5-0.1,1.7-0.1c0,0.1-2.6,0.2-1.4,0.3c0.1-0.2,1.2-0.2,1.7-0.3c0.9,0.1,0,0.1,0.4,0.2c0.5,0,0.8-0.1,1.2-0.1l-0.3,0.1
				c2.4,0.2,0.7-0.2,3.5-0.1c0.1-0.2-0.8-0.1-1.9-0.1c-0.6-0.3,3.6-0.4,3.3-0.7c2.6-0.1-0.7,0.1,1.5,0.2c1.2,0.2-1.6,0.3-2.2,0.4
				L154,50c-0.8,0.3-2.2,0.2-2.6,0.5c1.7,0,1.5-0.1,3.3-0.2c-2.8-0.2,1.2-0.2-0.4-0.5c1.3,0.1,0.9,0.1,2.8,0.1
				c-1.2,0.1,0,0.2-1.6,0.3c2.6,0,1.9-0.1,4.4-0.1c0.8-0.2-2.6-0.3,0.5-0.4c0.7,0,0.5,0.1,0.1,0.1c2.2,0.1-0.5-0.3,0.9-0.4
				c1,0,1.3,0.1,0.9,0.1c1.4-0.1,0.6-0.3,1.6-0.3l-0.4,0c0.4-0.1-0.7-0.4,1.4-0.4c1.5,0,1,0.1,1.1,0.2c1.2-0.1,2.1,0,2.9,0.1
				c-0.1,0,0-0.1,0.4-0.1c2-0.1,1.1,0.2,1.9,0.2c2.8,0.1-0.4-0.4,2.8-0.4l-3.7-0.1c0.2-0.1,0.2-0.3-0.6-0.3
				c-0.1,0.2-1.4,0.3-2.6,0.3c-0.4-0.2,3.3-0.2,1.2-0.4c0.7,0,1.8,0,2.7,0c-0.9,0.2,2.9,0,1.4,0.3c4,0,4.6,0.1,8.3-0.1
				c-0.3,0.1-2.7,0.4-4.6,0.3l-0.2-0.1c-2.4,0.1,1.9,0.1,1.4,0.3c3-0.3,6.6,0.1,10.2,0c-0.6-0.1,0.1-0.2,0.2-0.3
				c-1.5,0-1.2,0.1-2.3-0.1c0.2-0.1,1.1-0.1,1.5-0.2c0.4-0.2-1.1,0-1.6-0.1c1.4-0.1,1.3-0.1,2.1-0.2c0.8,0.1,0.7,0.2,1.3,0.3
				c3.4,0,3-0.2,5.8-0.2c-1.5,0,0.7,0.2-0.9,0.1l0.9,0c-2.4,0.2-6.5,0.2-6.1,0.6c1.9,0,3.4-0.2,5.7-0.2l-0.1,0.1
				c1.7,0,0-0.1,0.4-0.2c1.9-0.1,2.5,0.3,3.8,0.1l-2-0.1c1.5-0.1-0.4,0-0.1-0.3c2.6-0.2,7.2-0.1,10.9-0.2c-1.1-0.1-1.4-0.1-2.8-0.1
				c0.6-0.3,1.2-0.3,0.5-0.6l-1.7,0l0-0.3c0.5,0,0.9,0,1.3,0c0.2-0.2,2.6,0.1,2.7-0.1l-1.5,0c-0.7-0.2,1-0.1,2-0.2
				c-1-0.2-3.2,0-5.2,0c0.2,0.1-1.9,0.3,0.1,0.4c0,0.1-1.2,0.2-2,0.2c0.4-0.1-1.6-0.3,0.3-0.4c-1.8,0.1-0.8,0-2.8,0.1
				c0.3-0.1-3.5,0-3.3-0.3c-0.6,0.1,0,0.4-2.3,0.4c0.6,0.2,3.1,0.2,1.4,0.4l1.1-0.1c1.6,0.1-0.4,0.2,1.7,0.3c-0.6,0-1.9,0.1-2.1,0
				c0.5,0.4-3.1,0.2-3.2,0.5c-0.5-0.1-1.1-0.1-2.2-0.1c0.2-0.1-0.5-0.2,0.4-0.3c0.7,0,1.3,0,2.1,0.1c-0.5-0.4-3-0.1-4.9-0.2
				c0.3,0,0.3,0.1-0.2,0.1c-1.2-0.1-3.8-0.1-3-0.3l-5.9,0c0-0.1,0.8,0,1.2-0.1l-3.3,0c-0.8-0.1,1.1-0.1,1.5-0.2l-2.4,0l0.3-0.1
				c-0.6,0.1-3.3,0.1-4-0.1c-2.6,0.1-2.6,0.4-6.1,0.3c0.1-0.2,2-0.1,2.8-0.2c-0.7-0.1-2.8,0.1-3.1-0.1c-2.5,0.1-2.3,0.5-3.5,0.6
				c-2.1,0-0.2-0.2-0.3-0.2c-0.6,0-1.6,0.3-2.2,0.1c-1,0.1-1.6,0.3-0.1,0.4c-1.1,0-2.7,0.1-2.9,0.2c0.9-0.3-1.3-0.1-1.4-0.3
				c-1.7,0-5.4-0.1-6.9,0.2l0.5-0.3l-1.9,0c-1.5-0.2,1.7-0.2,2.7-0.2c-2.6,0-4.4,0-6.8,0c0.7,0.1,0.3,0.1,0.6,0.2
				c-0.8,0.1-1.9,0-2.8,0.1c-0.2-0.1-0.1-0.1,0.6-0.2l-1.6,0c0.1-0.2-0.7-0.2,0.9-0.3l-1.5,0.1c-1.7,0,0.1-0.2,0.5-0.2l-2.6,0
				c-0.9,0.1,0.5,0.2-1.3,0.2c-2.4-0.2-5.5-0.1-8.3-0.2l1.9,0.2c-1.7,0-1.3,0.3-1.8,0.4c-1.5,0-3.6,0-4.9-0.1
				c1.5-0.1,0.9-0.4-0.5-0.5c-3.1,0-2.4,0.3-4.1,0.4c1.4-0.4-2.2-0.1-1.9-0.3c-4,0-8,0.2-12.1,0.1c0.1,0.1,1.3,0.1,0.5,0.2
				c-1.5,0.1-2.2-0.1-2.4-0.2c-1.9,0-3.1,0.2-3.7,0.3c0.8,0,0.9,0,0.8,0.1c-1.9,0-1.4-0.2-3.2,0c-0.5-0.2,2.1-0.1,1.9-0.3
				c-1.7,0-2.8,0.1-4,0.2c-0.3-0.1,1.1,0,0.2-0.1c-2.7,0.1-5.9,0.2-7.9,0.3l-0.5-0.2c-1.3,0-2.1,0-2.7,0.1c-0.7-0.1-0.2-0.1,0.5-0.1
				c-1.7,0-3.8,0.1-4.8,0.1c0.2-0.1,1,0,1.3-0.1c-2.1,0-4.9,0.3-6.3,0.1c0.2,0,0.4,0,0.6,0c-3.2,0-6,0.1-9.4,0.1
				c-3.2-0.2-1,0.3-4.1,0.2c0-0.5-4.2,0-5.6-0.1l0.4,0.1c-1.5,0.2-3.7,0-4.7-0.1c-2.3,0-5.8,0-8.1,0.2l0.5-0.1c-1.9,0.1-3.1,0-5,0.1
				c0.1,0,0.8-0.1,0-0.1l-3.5,0l-0.4,0h-0.2c0,6.7,0,1.9,0,3.4h0h0h0h0.1h0.1l0.9,0l1.7,0l7-0.1c4.7-0.1,9.3-0.1,14-0.1
				c1.1,0,2.2,0,3.4,0l1.7,0l0.9,0l0.2,0h0.1h0c0,0.7,0-5.9,0-3.1h0h-0.1l-0.4,0c-2.3,0-4.7,0-7.1,0c-4.8,0-9.8,0-14.7,0
				c-9.9,0-2.1,0.1-10.8,0.3C29.5,48.4,21.3,50.3,22.5,51z"/>
			<linearGradient id="SVGID_21_" gradientUnits="userSpaceOnUse" x1="160.2471" y1="49.7323" x2="160.4962" y2="49.7323">
				<stop  offset="0" style="stop-color:#910811"/>
				<stop  offset="0.3202" style="stop-color:#920C12"/>
				<stop  offset="0.5276" style="stop-color:#951817"/>
				<stop  offset="0.703" style="stop-color:#9B271F"/>
				<stop  offset="0.8595" style="stop-color:#A33A2D"/>
				<stop  offset="1" style="stop-color:#AE4F3E"/>
			</linearGradient>
			<path class="st20" d="M160.5,49.7c-0.1,0-0.2,0-0.2,0C160.3,49.7,160.4,49.7,160.5,49.7z"/>
			<linearGradient id="SVGID_22_" gradientUnits="userSpaceOnUse" x1="118.9753" y1="49.5715" x2="119.5616" y2="49.5715">
				<stop  offset="0" style="stop-color:#910811"/>
				<stop  offset="0.3202" style="stop-color:#920C12"/>
				<stop  offset="0.5276" style="stop-color:#951817"/>
				<stop  offset="0.703" style="stop-color:#9B271F"/>
				<stop  offset="0.8595" style="stop-color:#A33A2D"/>
				<stop  offset="1" style="stop-color:#AE4F3E"/>
			</linearGradient>
			<path class="st21" d="M119,49.6l0.6,0L119,49.6z"/>
			<linearGradient id="SVGID_23_" gradientUnits="userSpaceOnUse" x1="83.5371" y1="50.206" x2="84.2784" y2="50.206">
				<stop  offset="0" style="stop-color:#910811"/>
				<stop  offset="0.3202" style="stop-color:#920C12"/>
				<stop  offset="0.5276" style="stop-color:#951817"/>
				<stop  offset="0.703" style="stop-color:#9B271F"/>
				<stop  offset="0.8595" style="stop-color:#A33A2D"/>
				<stop  offset="1" style="stop-color:#AE4F3E"/>
			</linearGradient>
			<path class="st22" d="M83.5,50.2l0.7,0C84,50.2,83.7,50.2,83.5,50.2z"/>
			<linearGradient id="SVGID_24_" gradientUnits="userSpaceOnUse" x1="32.682" y1="49.9935" x2="36.2215" y2="49.9935">
				<stop  offset="0" style="stop-color:#910811"/>
				<stop  offset="0.3202" style="stop-color:#920C12"/>
				<stop  offset="0.5276" style="stop-color:#951817"/>
				<stop  offset="0.703" style="stop-color:#9B271F"/>
				<stop  offset="0.8595" style="stop-color:#A33A2D"/>
				<stop  offset="1" style="stop-color:#AE4F3E"/>
			</linearGradient>
			<path class="st23" d="M35.6,48.3c-0.3-0.1,1.2-0.4-0.1-0.5c-1.1,0-1.8,0-2.2,0.1c-0.2,0-0.4,0.1-0.5,0.1l-0.1,0l0,0l0,0l0,0h0
				c0-0.7,0,6.4,0,3.4h0l0,0l0.1,0l0.2,0c0.5-0.1,1-0.2,3.2-0.2L33.9,51c0.1,0.1-0.3,0.2-0.9,0.3l-0.2,0l-0.1,0l0,0h0
				c0-6.2,0-1.7,0-3.1h0h0h0l0,0l0.1,0c0.2,0,0.4,0,0.6,0c0.4,0,0.8,0,1.3,0l0.5,0.2c-0.3,0-0.6,0.1-1,0.1
				C34.9,48.4,34.8,48.3,35.6,48.3z"/>
			<linearGradient id="SVGID_25_" gradientUnits="userSpaceOnUse" x1="34.107" y1="48.3728" x2="34.2727" y2="48.3728">
				<stop  offset="0" style="stop-color:#910811"/>
				<stop  offset="0.3202" style="stop-color:#920C12"/>
				<stop  offset="0.5276" style="stop-color:#951817"/>
				<stop  offset="0.703" style="stop-color:#9B271F"/>
				<stop  offset="0.8595" style="stop-color:#A33A2D"/>
				<stop  offset="1" style="stop-color:#AE4F3E"/>
			</linearGradient>
			<path class="st24" d="M34.1,48.4l0.1,0l0.1,0C34.2,48.4,34.2,48.4,34.1,48.4z"/>
		</g>
	</g>
	<g>
		<g>
			<path d="M152.6,31.9l-2.1,12.5h8.9l2.2-12c0-0.2,0.1-0.3,0.1-0.5H152.6z"/>
			<path d="M168.4,31.9c-0.1,0.4-0.1,0.7-0.2,1.1c-0.7,3.8-1.5,7.5-1.9,11.4l8.9,0l2.1-12.5H168.4z"/>
		</g>
		<path d="M141.2,31.9c-0.5,3-2.1,6.7-5,6.7v0c-3,0-4-2.1-4-4.8c0-0.6,0-1.2,0.1-1.9h-9.1c-0.1,0.4-0.1,0.8-0.1,1.2
			c0,8.5,5.9,11.8,13.7,11.8c7.8,0,12.7-5.8,13.4-13H141.2z"/>
		<polygon points="111.6,31.9 109.4,44.4 118.3,44.4 120.5,31.9 		"/>
		<path d="M101.3,31.9H89.6c-2.2,2.2-4.4,4.5-7,6.3l-1.1,6.2h23.9l1.3-6.4H94.3C96.7,36.1,99,34,101.3,31.9z"/>
		<path d="M71.5,31.9l-0.1,0.5c-0.4,2.3-1.7,5.7-4.5,5.7c-1.9,0-2.5-1.2-2.5-2.9c0-1.1,0.1-2.2,0.3-3.3h-8.9l-0.6,3.6
			c-0.2,1-0.3,1.9-0.3,2.9c0,4.3,2.9,6.5,7,6.5c4,0,5.6-1.2,8.4-3.9l-0.6,3.4h8.6l2.2-12.5H71.5z"/>
		<polygon class="st25" points="124.3,11 115.3,11 114.3,17.1 123.1,17.1 		"/>
		<g>
			<path class="st25" d="M161.9,30.6c0.6-2.2,1.8-4.4,4.5-4.4c1.2,0,2.5,0.8,2.5,2.1c0,0.8-0.1,1.5-0.2,2.3h8.9l0.7-4.2
				c0.1-0.4,0.1-0.9,0.1-1.3c0-4-3.2-6-6.9-6c-3.5,0-6.5,1.3-8.8,4l0.5-3.4h-8.6l-1.9,10.9H161.9z"/>
			<path class="st25" d="M152.6,31.9L152.6,31.9l9,0c0,0,0,0,0,0H152.6z"/>
			<path class="st25" d="M168.4,31.9C168.4,31.9,168.4,31.9,168.4,31.9l8.9,0l0,0H168.4z"/>
		</g>
		<g>
			<path class="st25" d="M141.2,31.9C141.2,31.9,141.2,31.9,141.2,31.9l8.9,0c0,0,0,0,0,0H141.2z"/>
			<path class="st25" d="M132.5,30.6c0.6-2.7,2.1-5.3,5-5.3c2.7,0,3.9,2.4,3.9,4.8c0,0.2,0,0.3,0,0.5h8.9c0-0.1,0-0.1,0-0.2
				c0-8.1-6-11.3-13.3-11.3c-7.2,0-11.4,3.8-13.2,10.6c-0.1,0.3-0.2,0.6-0.2,0.9H132.5z"/>
			<path class="st25" d="M123.2,31.9C123.2,31.9,123.2,31.9,123.2,31.9l9.1,0c0,0,0,0,0,0H123.2z"/>
		</g>
		<g>
			<polygon class="st25" points="120.7,30.6 122.6,19.8 113.8,19.8 111.8,30.6 			"/>
			<polygon class="st25" points="111.6,31.9 111.6,31.9 120.5,31.9 120.5,31.9 			"/>
		</g>
		<g>
			<path class="st25" d="M91,30.6h11.8c1.7-1.6,3.5-3.2,5.2-4.9l1.1-5.9H87.3L86.2,26h10.3C94.6,27.5,92.7,29,91,30.6z"/>
			<path class="st25" d="M89.6,31.9C89.6,31.9,89.6,31.9,89.6,31.9l11.7,0c0,0,0,0,0,0H89.6z"/>
		</g>
		<g>
			<polygon class="st25" points="80.7,30.6 82.6,19.8 73.7,19.8 71.7,30.6 			"/>
			<polygon class="st25" points="71.5,31.9 71.5,31.9 80.5,31.9 80.5,31.9 			"/>
		</g>
		<g>
			<path class="st25" d="M64.8,30.6c0-0.2,0.1-0.4,0.1-0.6c0.5-3.4,1.3-6.7,1.9-10.1l-9,0L56,30.6H64.8z"/>
			<path class="st25" d="M55.8,31.9L55.8,31.9l8.9,0c0,0,0,0,0,0H55.8z"/>
		</g>
		<g>
			<path class="st25" d="M40.4,30.6h9l0.9-4.9H55l1.1-6h-4.9c0.6-1.7,0.8-2.8,2.9-2.8c0.6,0,1.2,0,1.9,0.1l1.1-6.2
				c-1.9-0.2-3.8-0.4-5.7-0.4c-6.9,0-8.1,3.2-8.9,9.3h-3.5l-1.1,5.9h3.5L40.4,30.6z"/>
			<polygon class="st25" points="40.2,31.9 40.2,31.9 49.2,31.9 49.2,31.9 			"/>
		</g>
		<g>
			<polygon points="46.9,45.2 49.2,31.9 40.2,31.9 37.8,45.2 			"/>
			<polygon points="36.5,53.5 33.4,70.6 42.4,70.6 45.6,53.5 			"/>
		</g>
	</g>
</g>
</svg>
