<?xml version="1.0" encoding="utf-8"?>
<!-- Generator: Adobe Illustrator 20.0.0, SVG Export Plug-In . SVG Version: 6.00 Build 0)  -->
<svg version="1.1" id="Layer_1" xmlns="http://www.w3.org/2000/svg" xmlns:xlink="http://www.w3.org/1999/xlink" x="0px" y="0px"
	 viewBox="0 0 100 100" style="enable-background:new 0 0 100 100;" xml:space="preserve">
<style type="text/css">
	.st0{fill:#701713;}
	.st1{fill:#FFFFFF;}
	.st2{fill:#FFFFFF;stroke:#FFFFFF;stroke-width:0.25;stroke-miterlimit:10;}
</style>
<circle class="st0" cx="50" cy="50" r="50"/>
<polygon class="st1" points="50,64 49.4,62.4 50,60.9 50.6,62.4 "/>
<polygon class="st1" points="48.8,62.8 7.3,62.4 7.3,62.4 48.8,62.1 "/>
<polygon class="st1" points="51.2,62.8 92.7,62.4 92.7,62.4 51.2,62.1 "/>
<g>
	<path class="st2" d="M48.8,44.6c-0.2,0.1-0.5,0.3-0.8,0.5c-0.3,0.2-0.6,0.5-0.9,0.7c-0.3,0.3-0.5,0.4-0.5,0.4c0,0.1-0.1,0.1-0.2,0
		c-0.1-0.1,0-0.1,0.1-0.2c0.1,0,0.2-0.2,0.5-0.4c0.3-0.2,0.6-0.5,1-0.8c0.4-0.3,0.8-0.5,1.3-0.8c0.5-0.2,0.9-0.3,1.3-0.3
		c0.3,0,0.5,0.1,0.4,0.3s-0.2,0.5-0.4,0.8c-0.3,0.3-0.6,0.7-0.9,1.1c-0.4,0.4-0.7,0.8-1,1.2c-0.3,0.4-0.5,0.7-0.7,1
		c-0.2,0.3-0.2,0.4,0,0.5c0.4,0.2,0.9,0.1,1.6-0.1c0.7-0.2,1.4-0.5,2.1-0.8c0.7-0.3,1.3-0.7,1.8-1c0.5-0.3,0.8-0.6,0.9-0.7
		c0.1-0.1,0.1-0.1,0.2-0.1c0,0,0,0.1,0,0.1c-0.5,0.4-1.1,0.8-1.8,1.2c-0.7,0.4-1.5,0.7-2.2,1c-0.8,0.3-1.5,0.5-2.2,0.7
		c-0.7,0.2-1.2,0.2-1.6,0.2c-0.2,0-0.3-0.1-0.3-0.3s0-0.3,0-0.5c0.1-0.2,0.2-0.5,0.3-0.7c0.1-0.3,0.3-0.5,0.5-0.8
		c0.4-0.6,1-1.4,1.6-2.2C49.1,44.6,49.1,44.5,48.8,44.6z M53.2,38c0.1-0.4,0.2-0.7,0-0.8c-0.1-0.1-0.3,0-0.7,0.3
		c-0.3,0.3-0.7,0.7-1,1.2c-0.3,0.5-0.6,0.9-0.7,1.3c-0.1,0.4-0.2,0.7,0,0.8c0.1,0.1,0.4,0,0.7-0.3c0.3-0.3,0.7-0.7,1-1.2
		C52.9,38.9,53.1,38.4,53.2,38z"/>
	<path class="st2" d="M59.7,45c0.6,0.3,0.7,1,0.1,1.9c-0.3,0.4-0.6,0.8-1.1,1.2c-0.4,0.4-0.9,0.7-1.4,1c-0.5,0.3-0.9,0.5-1.4,0.7
		c-0.5,0.2-0.9,0.3-1.3,0.2c-0.5-0.1-0.7-0.3-0.8-0.7c-0.1-0.4,0-0.8,0.1-1.3c0.1-0.3,0.3-0.7,0.4-1.1c0.2-0.4,0.4-0.8,0.7-1.1
		c0.5-0.6,1.1-1,1.8-1.4c0.7-0.3,1.5-0.5,2.1-0.6c0.7,0,1.3,0,1.8,0.1c0,0,0,0.1-0.1,0.3c-0.1,0.2-0.2,0.3-0.2,0.2
		c-0.4-0.1-0.8-0.2-1.3-0.2c-0.5,0-1,0-1.5,0.1c-0.5,0.1-1,0.3-1.5,0.6c-0.5,0.3-0.9,0.7-1.3,1.3c-0.2,0.4-0.4,0.7-0.5,0.9
		c-0.1,0.2-0.2,0.5-0.2,0.8c0,0.4,0,0.7,0.2,0.9c0.1,0.2,0.3,0.2,0.6,0.2c0.3,0,0.6-0.1,1-0.3c0.5-0.2,0.9-0.4,1.1-0.6
		c0.3-0.2,0.6-0.5,1-0.9c0.2-0.2,0.3-0.4,0.4-0.6c0.1-0.2,0.2-0.4,0.2-0.6c0-0.2,0-0.3-0.2-0.4c-0.2-0.1-0.4-0.2-0.5-0.3
		c-0.1-0.1-0.1-0.1,0.1-0.2c0.1-0.1,0.3-0.1,0.5-0.1c0.2,0,0.5,0,0.7,0C59.4,44.9,59.6,44.9,59.7,45z M65.4,46.2
		C65.4,46.2,65.4,46.2,65.4,46.2c0,0.1-0.1,0.1-0.1,0.1c-0.2,0-0.4,0.1-0.5,0.1c-0.2,0-0.4,0-0.6,0h-0.9c-0.7,0-1.3-0.1-1.7-0.3
		c-0.3-0.1-0.5-0.2-0.7-0.3c-0.2-0.1-0.4-0.3-0.7-0.4c-0.1,0-0.3-0.1-0.4-0.2c-0.1-0.1-0.3-0.2-0.4-0.3l0,0c0.1,0,0.3,0,0.4,0.1
		c0.2,0.1,0.4,0.2,0.5,0.3c0.2,0.1,0.4,0.2,0.6,0.3c0.2,0.1,0.5,0.2,0.7,0.3c0.5,0.2,1,0.3,1.7,0.3c0.2,0,0.4,0,0.5,0
		c0.2,0,0.3,0,0.5,0C64.7,46.2,65.1,46.2,65.4,46.2z"/>
	<path class="st2" d="M78.2,52.7c0.1-0.1,0.2-0.2,0.3-0.1c0.1,0.1,0.1,0.2,0,0.3c-0.2,0.2-0.4,0.3-0.6,0.5c-0.2,0.2-0.4,0.3-0.6,0.5
		c-0.4,0.3-0.8,0.7-1.1,1c-0.4,0.3-0.8,0.6-1.2,0.9c-0.4,0.3-0.9,0.6-1.3,0.9c-0.4,0.3-0.9,0.5-1.4,0.7c-0.4,0.2-0.8,0.3-1.3,0.5
		C70.7,58,70.3,58,69.8,58c-0.4,0-0.8-0.2-1.1-0.3c-0.4-0.2-0.7-0.5-0.9-0.9c-0.3-0.4-0.5-0.9-0.6-1.4c-0.1-0.6-0.1-1.1-0.1-1.5
		c0-0.6,0.2-1.1,0.4-1.7c0.2-0.6,0.4-1.1,0.6-1.6c0.5-1.1,1.1-2.2,1.8-3.3c0.1-0.2,0.3-0.5,0.5-0.7c0.2-0.3,0.4-0.6,0.6-0.9
		c0.2-0.3,0.4-0.6,0.6-0.9c0.2-0.3,0.4-0.5,0.5-0.7c0,0-0.1,0-0.2,0.1c-0.1,0-0.1,0-0.2,0.1c-0.3,0.1-0.7,0.3-1,0.6
		c-0.4,0.3-0.7,0.5-1.1,0.8c-0.4,0.3-0.7,0.6-1.1,0.9c-0.3,0.3-0.6,0.5-0.9,0.7c-0.5,0.4-1,0.7-1.5,1.1c-0.5,0.3-1,0.7-1.7,1
		c-0.1,0-0.2,0.1-0.3,0.2c-0.1,0.1-0.2,0.1-0.3,0.1c-0.1,0-0.2,0-0.2-0.1c-0.1,0-0.1-0.1,0-0.3c0.1-0.4,0.2-0.7,0.4-0.9
		c0.2-0.4,0.4-0.8,0.8-1.3c0.3-0.5,0.6-0.9,0.8-1.3c0.1-0.1,0.2-0.3,0.3-0.4c0.1-0.1,0.1-0.2,0.2-0.4c0.1-0.1,0.1-0.2,0.2-0.3
		c0-0.1,0.2-0.2,0.3-0.3c0.2-0.1,0.3-0.2,0.5-0.3c0.2-0.1,0.3-0.2,0.5-0.2c0.2-0.1,0.3-0.1,0.3-0.1c0.1,0,0.3-0.1,0.4-0.1
		c0.1,0,0.2,0,0.3,0c0.1,0,0.1,0.1,0.1,0.2c0,0.1-0.1,0.3-0.3,0.5c-0.1,0.1-0.3,0.3-0.5,0.6c-0.2,0.3-0.4,0.5-0.6,0.8
		c-0.2,0.3-0.4,0.6-0.6,0.8c-0.2,0.3-0.4,0.5-0.5,0.6c-0.1,0.1-0.2,0.2-0.3,0.4c-0.1,0.2-0.2,0.3-0.3,0.4c-0.1,0.1-0.1,0.2,0,0.3
		c0,0,0.2,0,0.5-0.1c0.3-0.1,0.6-0.4,1.2-0.8c0.5-0.4,1.2-0.9,2.1-1.6c0.5-0.4,1-0.8,1.5-1.2c0.5-0.4,1-0.6,1.7-0.8
		c0.4-0.1,0.7-0.2,1-0.2c0.3-0.1,0.6-0.1,0.7-0.1c0.2,0,0.3,0.1,0.3,0.2c0,0.1-0.1,0.3-0.3,0.6c-0.2,0.2-0.4,0.5-0.5,0.7
		c-0.2,0.2-0.3,0.4-0.5,0.6c-0.2,0.2-0.4,0.5-0.7,0.8c-0.3,0.3-0.6,0.6-0.8,0.9c-0.3,0.3-0.6,0.6-0.8,1c-0.3,0.3-0.5,0.6-0.6,0.8
		c-0.4,0.5-0.7,1-1,1.5c-0.3,0.5-0.6,1.1-0.9,1.7c-0.2,0.5-0.3,1-0.5,1.5c-0.1,0.5-0.1,1,0,1.6c0.1,0.5,0.2,0.9,0.5,1.3
		c0.1,0.2,0.3,0.3,0.4,0.5c0.1,0.2,0.3,0.3,0.5,0.4c0.4,0.1,0.8,0.2,1.2,0.1c0.4,0,0.8-0.1,1.2-0.2c0.5-0.2,0.9-0.4,1.4-0.6
		c0.4-0.2,0.9-0.5,1.3-0.8c0.9-0.6,1.7-1.2,2.5-1.8C77.2,53.9,77.7,53.3,78.2,52.7z M65,46.4c-0.1,0-0.2,0-0.3-0.1
		c0,0-0.1-0.1,0-0.1c0,0,0.2-0.1,0.3-0.3c0.2-0.1,0.3-0.3,0.5-0.4c0.1-0.1,0.2-0.3,0.4-0.4c0.1-0.1,0.2-0.3,0.3-0.5l0.4,0.5L65,46.4
		z"/>
</g>
<g>
	<path class="st1" d="M61,49.6c-0.2,1.1-0.6,2.2-1.1,3.3s-1.2,2.1-1.9,3c-0.8,0.9-1.6,1.5-2.6,1.9c-1,0.4-2,0.6-3.2,0.6
		c-1.9,0-4-0.2-6.3-0.7c-2.3-0.5-4.7-1-7.2-1.6c-2.5-0.6-5.1-1.1-7.8-1.6c-2.7-0.5-5.3-0.8-8-0.9c-0.2,0-0.3-0.1-0.4-0.3
		C22.6,53.1,22.7,53,23,53c1,0,1.9-0.3,2.7-1c0.6-0.5,1.5-1.2,2.7-2.2c1.2-1,2.5-2.1,4-3.4c1.5-1.3,3.1-2.7,4.8-4.1
		c1.7-1.5,3.3-2.9,4.8-4.4c1.6-1.4,3-2.8,4.4-4.2c1.3-1.3,2.4-2.5,3.2-3.5c0.3-0.4,0.5-0.7,0.5-0.8c0-0.3-0.4-0.5-1.2-0.5
		c-2,0-4,0-6.1,0.1c-2.1,0.1-4,0.2-5.6,0.4c-1.1,0.1-2,0.3-2.9,0.6c-0.8,0.3-1.5,0.6-2,1c-0.3,0.3-0.5,0.3-0.5-0.1
		c0.3-0.7,0.6-1.2,0.8-1.5c0.2-0.3,0.6-0.6,1.1-0.6c1.3-0.1,2.8-0.2,4.6-0.3c1.7-0.1,3.5-0.1,5.3-0.1c1,0,2.2,0,3.5-0.1
		c1.3,0,2.5-0.1,3.7-0.1c1.2,0,2.2,0,3.1-0.1c0.9,0,1.4,0,1.7,0c0.4,0,0.6,0.1,0.5,0.3c0,0.2-0.2,0.3-0.4,0.3
		c-0.2,0-0.4,0.1-0.6,0.3c-0.2,0.2-0.4,0.4-0.6,0.5c-0.9,0.7-1.9,1.6-3.1,2.7c-1.2,1.1-2.5,2.3-4,3.6c-1.4,1.3-2.9,2.6-4.5,4.1
		c-1.6,1.4-3.1,2.9-4.6,4.3c-1.5,1.4-3,2.8-4.4,4.2c-1.4,1.3-2.7,2.6-3.8,3.7c-0.2,0.3-0.3,0.5-0.3,0.6c0,0.2,0.2,0.4,0.5,0.5
		c0.8,0.2,2,0.5,3.6,0.9c1.6,0.4,3.3,0.7,5.2,1.1c1.9,0.3,3.9,0.6,5.9,0.9c2,0.2,4,0.3,5.8,0.3c3,0,5.3-0.6,6.8-1.8
		c1.6-1.2,2.6-3,3.1-5.3c0.1-0.2,0.2-0.3,0.3-0.3C61,49.1,61,49.3,61,49.6z"/>
</g>
<g>
	<path class="st1" d="M12.8,66.3v-0.2c0.5,0,1.1,0,1.7,0l1.7,0c0.6,0,1.1,0.1,1.4,0.3c0.4,0.2,0.6,0.4,0.8,0.8
		c0.2,0.4,0.3,0.8,0.3,1.3c0,0.9-0.3,1.7-0.9,2.3c-0.6,0.6-1.5,0.9-2.5,0.9c-0.1,0-0.3,0-0.7,0c-0.4,0-0.7,0-0.7,0
		c-0.3,0-0.6,0-1.1,0v-0.2c0.4-0.1,0.7-0.1,0.7-0.1c0,0,0.1,0,0.1-0.1c0,0,0,0,0-0.1c0-0.1,0-0.3,0-0.7c0-0.8,0-1.5,0-1.9l0-1.7
		l0-0.1c0-0.1,0-0.2-0.1-0.3C13.5,66.5,13.3,66.4,12.8,66.3z M14.5,71.2c0.4,0.1,0.8,0.1,1.1,0.1c0.4,0,0.8-0.1,1.1-0.2
		c0.4-0.2,0.7-0.5,0.9-0.9c0.2-0.4,0.3-0.9,0.3-1.5c0-0.3,0-0.6-0.1-0.8c-0.1-0.3-0.2-0.5-0.3-0.6c-0.2-0.2-0.4-0.4-0.7-0.5
		c-0.3-0.1-0.7-0.2-1.2-0.2c-0.3,0-0.7,0-1.1,0.1c0,0.7,0,1.5,0,2.3C14.5,69.8,14.5,70.5,14.5,71.2z"/>
	<path class="st1" d="M21.5,66h0.2c0.4,0.9,0.8,1.9,1.3,3.1l0.9,2c0,0.1,0.1,0.1,0.1,0.2c0,0,0.2,0.1,0.6,0.2v0.2c-0.5,0-0.8,0-1,0
		c-0.2,0-0.6,0-1.2,0v-0.2c0.3-0.1,0.5-0.1,0.6-0.2c0.1,0,0.1-0.1,0.1-0.1c0-0.1,0-0.1-0.1-0.3l-0.4-1c-0.6,0-1,0-1.2,0l-1.1,0
		l-0.4,1c-0.1,0.2-0.1,0.3-0.1,0.3c0,0,0,0.1,0,0.1c0,0,0.2,0.1,0.5,0.1c0,0,0.1,0,0.1,0v0.2c-0.4,0-0.8,0-0.9,0c-0.2,0-0.5,0-0.9,0
		v-0.2c0.2-0.1,0.4-0.1,0.5-0.2c0.1,0,0.1-0.1,0.2-0.3c0.1-0.3,0.5-1.1,1.1-2.5L21.5,66z M20.5,69.5c0.4,0,0.6,0,0.8,0
		c0,0,0.4,0,1.2,0l-1-2.4L20.5,69.5z"/>
	<path class="st1" d="M24.8,66.3v-0.2c0.3,0,0.6,0,0.8,0c0.2,0,0.4,0,0.8,0l1.1,1.4c0.1,0.1,0.9,1.1,2.4,2.9c0-0.4,0-0.6,0-0.8
		c0-0.4,0-1.1,0-2.1c0-0.5,0-0.7,0-0.8c0,0,0-0.1-0.1-0.1c0,0-0.2-0.1-0.5-0.1c0,0-0.1,0-0.2,0v-0.2c0.5,0,0.8,0,1.1,0
		c0.3,0,0.6,0,1.1,0v0.2c-0.1,0-0.1,0-0.2,0c-0.4,0.1-0.5,0.1-0.6,0.1c0,0-0.1,0-0.1,0.1c0,0,0,0.1-0.1,0.2c0,0,0,0.4,0,1.1
		c0,0.7,0,1.3,0,1.9c0,0.7,0,1.3,0,1.9L30,71.7l-1.6-2l-2.1-2.6l0,2.3c0,1,0,1.6,0,1.6c0,0,0,0.1,0.1,0.1c0.1,0.1,0.3,0.1,0.6,0.2
		c0,0,0.1,0,0.2,0v0.2c-0.4,0-0.7,0-1,0c-0.2,0-0.6,0-1.2,0v-0.2c0.1,0,0.2,0,0.2,0c0.3-0.1,0.5-0.1,0.5-0.2c0,0,0-0.1,0.1-0.1
		c0-0.1,0-0.6,0.1-1.4c0-1.1,0-1.8,0-2c0-0.7,0-1,0-1.1c0-0.1,0-0.1-0.1-0.1c-0.1,0-0.3-0.1-0.7-0.2C24.9,66.3,24.9,66.3,24.8,66.3z
		"/>
	<path class="st1" d="M36.6,70.7l0.2,0.3c-0.4,0.3-0.8,0.5-1.2,0.6c-0.4,0.1-0.8,0.2-1.2,0.2c-0.5,0-1-0.1-1.4-0.4
		c-0.4-0.2-0.8-0.6-1-1c-0.2-0.4-0.3-0.9-0.3-1.5c0-0.9,0.3-1.6,0.9-2.1c0.6-0.6,1.3-0.8,2.3-0.8c0.6,0,1.2,0.1,1.9,0.4
		c0,0.2,0,0.4,0,0.5c0,0.3,0,0.7,0.1,1.1h-0.3c-0.1-0.5-0.2-0.8-0.3-0.9c-0.1-0.2-0.3-0.3-0.5-0.4c-0.2-0.1-0.5-0.2-0.9-0.2
		c-0.8,0-1.3,0.3-1.7,0.8c-0.3,0.4-0.4,0.9-0.4,1.6c0,0.8,0.2,1.4,0.6,1.8c0.4,0.4,1,0.7,1.6,0.7c0.3,0,0.6,0,0.9-0.1
		C35.9,71,36.2,70.9,36.6,70.7z"/>
	<path class="st1" d="M38.8,68.5h0.9c0.4,0,0.6,0,0.6,0c0.1,0,0.1-0.1,0.2-0.1c0-0.1,0.1-0.2,0.2-0.5c0,0,0-0.1,0-0.1H41
		c0,0.4,0,0.8,0,1c0,0.2,0,0.6,0,1h-0.3c-0.1-0.4-0.1-0.6-0.1-0.6c0-0.1-0.1-0.1-0.1-0.1c-0.1,0-0.3,0-0.6,0h-1.1l0,2.3h1.6l0.1,0
		c0.2,0,0.4,0,0.4,0c0.1,0,0.2-0.1,0.3-0.2c0.1-0.1,0.2-0.3,0.4-0.7c0,0,0.1-0.1,0.1-0.2h0.3c0,0.1-0.2,0.6-0.5,1.5
		c-1,0-1.8,0-2.6,0c-0.5,0-1.2,0-1.8,0v-0.2l0.6-0.1c0.1,0,0.2-0.1,0.2-0.1c0,0,0.1-0.2,0.1-0.3v-0.1l0-0.9c0-0.2,0-0.5,0-1
		c0-0.8,0-1.3,0-1.7c0-0.4,0-0.6,0-0.6c0,0,0-0.1-0.1-0.1s-0.2-0.1-0.4-0.1l-0.4-0.1v-0.2c0.5,0,1.1,0,1.8,0c0.4,0,1.3,0,2.7,0
		c0,0.5,0,0.9,0.1,1.3h-0.3c-0.1-0.4-0.2-0.6-0.3-0.7c0-0.1-0.1-0.1-0.2-0.2c-0.1,0-0.3-0.1-0.6-0.1h-1.6l0,1.3L38.8,68.5z"/>
	<path class="st1" d="M49.8,70.7L50,71c-0.4,0.3-0.8,0.5-1.2,0.6c-0.4,0.1-0.8,0.2-1.2,0.2c-0.5,0-1-0.1-1.4-0.4
		c-0.4-0.2-0.8-0.6-1-1c-0.2-0.4-0.3-0.9-0.3-1.5c0-0.9,0.3-1.6,0.9-2.1c0.6-0.6,1.3-0.8,2.3-0.8c0.6,0,1.2,0.1,1.9,0.4
		c0,0.2,0,0.4,0,0.5c0,0.3,0,0.7,0.1,1.1h-0.3c-0.1-0.5-0.2-0.8-0.3-0.9c-0.1-0.2-0.3-0.3-0.5-0.4c-0.2-0.1-0.5-0.2-0.9-0.2
		c-0.8,0-1.3,0.3-1.7,0.8c-0.3,0.4-0.4,0.9-0.4,1.6c0,0.8,0.2,1.4,0.6,1.8c0.4,0.4,1,0.7,1.6,0.7c0.3,0,0.6,0,0.9-0.1
		C49.1,71,49.4,70.9,49.8,70.7z"/>
	<path class="st1" d="M50.6,68.9c0-0.9,0.3-1.6,0.8-2.1c0.6-0.5,1.3-0.8,2.1-0.8c0.8,0,1.4,0.2,1.9,0.7c0.5,0.5,0.7,1.2,0.7,2
		c0,0.9-0.3,1.7-0.8,2.2c-0.5,0.5-1.2,0.8-2.1,0.8c-0.8,0-1.5-0.2-2-0.7S50.6,69.8,50.6,68.9z M51.5,68.8c0,0.9,0.2,1.5,0.6,1.9
		c0.4,0.4,0.9,0.6,1.4,0.6c0.4,0,0.7-0.1,1-0.3c0.3-0.2,0.5-0.5,0.7-0.9c0.2-0.4,0.2-0.8,0.2-1.3c0-0.6-0.1-1.1-0.3-1.5
		c-0.2-0.4-0.4-0.7-0.7-0.8c-0.3-0.2-0.6-0.3-1-0.3c-0.4,0-0.7,0.1-1,0.3c-0.3,0.2-0.5,0.5-0.7,0.9C51.5,67.9,51.5,68.3,51.5,68.8z"
		/>
	<path class="st1" d="M56.6,66.3v-0.2c0.4,0,0.8,0,1,0c0.3,0,0.5,0,0.8,0c0.1,0.3,0.2,0.5,0.3,0.6c0.1,0.2,0.4,0.9,1,2.2
		c0.3,0.5,0.5,1.1,0.8,1.6l1.7-3.5c0.1-0.2,0.2-0.5,0.4-0.9c0.4,0,0.6,0,0.8,0c0.2,0,0.5,0,0.9,0v0.2c-0.1,0-0.1,0-0.2,0
		c-0.4,0.1-0.6,0.1-0.6,0.2c-0.1,0.1-0.1,0.2-0.1,0.4v0.1l0,1.2c0,1.6,0,2.5,0,2.8c0,0.1,0,0.1,0.1,0.2c0,0,0.3,0.1,0.7,0.2
		c0,0,0.1,0,0.2,0v0.2c-0.5,0-0.9,0-1.2,0c-0.4,0-0.8,0-1.3,0v-0.2c0.1,0,0.2,0,0.2-0.1c0.3-0.1,0.5-0.1,0.5-0.1
		c0,0,0.1-0.1,0.1-0.1c0-0.1,0-0.3,0-0.6v-3.4c-0.2,0.5-0.8,1.6-1.6,3.4c-0.2,0.5-0.4,0.9-0.5,1.1h-0.2c-0.6-1.3-1.3-2.8-2.1-4.5
		l0.1,3.7c0,0.3,0,0.5,0.1,0.5c0,0,0.2,0.1,0.6,0.2c0,0,0.1,0,0.2,0v0.2c-0.5,0-0.8,0-1.1,0c-0.3,0-0.6,0-1.1,0v-0.2
		c0.1,0,0.1,0,0.2,0c0.3-0.1,0.5-0.1,0.6-0.2c0.1-0.1,0.1-0.3,0.1-0.5l0-0.9c0-0.8,0-1.6,0-2.3l0-0.5c0-0.2,0-0.3,0-0.4
		c0,0-0.1-0.1-0.1-0.1c-0.1,0-0.3-0.1-0.7-0.1C56.8,66.3,56.7,66.3,56.6,66.3z"/>
	<path class="st1" d="M64.5,66.3v-0.2c0.3,0,0.8,0,1.3,0l1.5,0c0.6,0,1,0.1,1.3,0.4c0.3,0.2,0.4,0.6,0.4,1c0,0.5-0.2,0.9-0.5,1.2
		c-0.4,0.3-0.8,0.5-1.5,0.5c-0.2,0-0.5,0-0.9-0.1c0,0.4,0,0.7,0,0.9c0,0.7,0,1,0,1.2c0,0,0,0.1,0.1,0.1c0.1,0,0.3,0.1,0.7,0.2
		c0,0,0.1,0,0.2,0v0.2c-0.5,0-1,0-1.4,0c-0.4,0-0.8,0-1.3,0v-0.2c0.1,0,0.2,0,0.2-0.1c0.3-0.1,0.5-0.1,0.6-0.2
		c0.1-0.1,0.1-0.2,0.1-0.5l0-1.9l0-1.9v-0.1c0-0.2,0-0.3-0.1-0.3c-0.1,0-0.3-0.1-0.6-0.2C64.7,66.3,64.6,66.3,64.5,66.3z M66.2,68.8
		c0.3,0.1,0.5,0.1,0.7,0.1c0.4,0,0.8-0.1,1-0.3c0.2-0.2,0.4-0.5,0.4-0.9c0-0.4-0.1-0.6-0.3-0.9c-0.2-0.2-0.5-0.3-1-0.3
		c-0.2,0-0.4,0-0.7,0.1C66.2,67.3,66.2,68.1,66.2,68.8z"/>
	<path class="st1" d="M71.6,66h0.2c0.4,0.9,0.8,1.9,1.3,3.1l0.9,2c0,0.1,0.1,0.1,0.1,0.2c0,0,0.2,0.1,0.6,0.2v0.2c-0.5,0-0.8,0-1,0
		c-0.2,0-0.6,0-1.2,0v-0.2c0.3-0.1,0.5-0.1,0.6-0.2c0.1,0,0.1-0.1,0.1-0.1c0-0.1,0-0.1-0.1-0.3l-0.4-1c-0.6,0-1,0-1.2,0l-1.1,0
		l-0.4,1c-0.1,0.2-0.1,0.3-0.1,0.3c0,0,0,0.1,0,0.1c0,0,0.2,0.1,0.5,0.1c0,0,0.1,0,0.1,0v0.2c-0.4,0-0.8,0-0.9,0c-0.2,0-0.5,0-0.9,0
		v-0.2c0.2-0.1,0.4-0.1,0.5-0.2c0.1,0,0.1-0.1,0.2-0.3c0.1-0.3,0.5-1.1,1.1-2.5L71.6,66z M70.6,69.5c0.4,0,0.6,0,0.8,0
		c0,0,0.4,0,1.2,0l-1-2.4L70.6,69.5z"/>
	<path class="st1" d="M74.8,66.3v-0.2c0.3,0,0.6,0,0.8,0c0.2,0,0.4,0,0.8,0l1.1,1.4c0.1,0.1,0.9,1.1,2.4,2.9c0-0.4,0-0.6,0-0.8
		c0-0.4,0-1.1,0-2.1c0-0.5,0-0.7,0-0.8c0,0,0-0.1-0.1-0.1c0,0-0.2-0.1-0.5-0.1c0,0-0.1,0-0.2,0v-0.2c0.5,0,0.8,0,1.1,0
		c0.3,0,0.6,0,1.1,0v0.2c-0.1,0-0.1,0-0.2,0c-0.3,0.1-0.5,0.1-0.6,0.1c0,0-0.1,0-0.1,0.1c0,0,0,0.1-0.1,0.2c0,0,0,0.4,0,1.1
		c0,0.7,0,1.3,0,1.9c0,0.7,0,1.3,0,1.9l-0.3,0.1l-1.6-2l-2.1-2.6l0,2.3c0,1,0,1.6,0,1.6c0,0,0,0.1,0.1,0.1c0.1,0.1,0.3,0.1,0.6,0.2
		c0,0,0.1,0,0.2,0v0.2c-0.4,0-0.7,0-1,0c-0.2,0-0.6,0-1.2,0v-0.2c0.1,0,0.2,0,0.2,0c0.3-0.1,0.5-0.1,0.5-0.2c0,0,0-0.1,0.1-0.1
		c0-0.1,0-0.6,0.1-1.4c0-1.1,0-1.8,0-2c0-0.7,0-1,0-1.1c0-0.1,0-0.1-0.1-0.1c-0.1,0-0.3-0.1-0.7-0.2C75,66.3,74.9,66.3,74.8,66.3z"
		/>
	<path class="st1" d="M83.1,71.6v-0.2c0.1,0,0.2,0,0.2,0c0.3-0.1,0.5-0.1,0.6-0.2c0,0,0.1-0.1,0.1-0.2c0-0.1,0-0.5,0-1.1l0-0.5
		c-0.2-0.4-0.6-0.9-1.1-1.7l-0.7-1c-0.1-0.1-0.1-0.1-0.2-0.2c-0.1-0.1-0.3-0.1-0.6-0.2v-0.2c0.4,0,0.8,0,1.1,0c0.3,0,0.7,0,1.2,0
		v0.2c-0.3,0.1-0.5,0.1-0.5,0.2c0,0-0.1,0.1-0.1,0.1c0,0,0,0.1,0.1,0.2c0.2,0.4,0.7,1.1,1.3,2.1c0.3-0.5,0.8-1.2,1.3-2.1
		c0.1-0.1,0.1-0.2,0.1-0.2c0,0,0-0.1,0-0.1c-0.1-0.1-0.3-0.1-0.5-0.2v-0.2c0.5,0,0.8,0,1,0c0.3,0,0.6,0,1,0v0.2
		c-0.3,0.1-0.5,0.1-0.7,0.2c-0.1,0.1-0.3,0.3-0.5,0.5c-0.4,0.6-0.9,1.3-1.4,2.2c0,0.1,0,0.2,0,0.2c0,0.9,0,1.4,0,1.5
		c0,0.1,0,0.2,0.1,0.2c0.1,0.1,0.3,0.1,0.7,0.2c0,0,0.1,0,0.1,0v0.2c-0.5,0-0.9,0-1.2,0C84.2,71.6,83.8,71.6,83.1,71.6z"/>
</g>
</svg>
